<?xml version="1.0" encoding="UTF-8" standalone="no" ?>
<!DOCTYPE svg PUBLIC "-//W3C//DTD SVG 1.1//EN" "http://www.w3.org/Graphics/SVG/1.1/DTD/svg11.dtd">
<svg xmlns="http://www.w3.org/2000/svg" xmlns:xlink="http://www.w3.org/1999/xlink" version="1.1" width="200" height="100" viewBox="0 0 200 100" xml:space="preserve">
<defs>
</defs>
<g transform="matrix(1.14 0 0 1.14 540 540)"  >
<g style="" vector-effect="non-scaling-stroke"   >
		<g transform="matrix(0.92 0 0 0.92 -151.52 0)"  >
<path style="stroke: none; stroke-width: 1; stroke-dasharray: none; stroke-linecap: butt; stroke-dashoffset: 0; stroke-linejoin: miter; stroke-miterlimit: 4; fill: rgb(43,53,149); fill-rule: nonzero; opacity: 1;" vector-effect="non-scaling-stroke"  transform=" translate(-50, -1002.36)" d="M 54 962.36216 L 54 998.36216 L 90 998.36216 C 90 978.47996 73.8822 962.36216 54 962.36216 z M 46 970.36216 C 26.1179 970.36216 10 986.48006 10 1006.3622 C 10 1026.2443 26.1179 1042.3622 46 1042.3622 C 65.8822 1042.3622 82 1026.2443 82 1006.3622 L 46 1006.3622 L 46 970.36216 z" stroke-linecap="round" />
</g>
<g transform="matrix(2.5 0 0 2.5 47.96 0.64)"  >
<path style="stroke: none; stroke-width: 1; stroke-dasharray: none; stroke-linecap: butt; stroke-dashoffset: 0; stroke-linejoin: miter; stroke-miterlimit: 4; fill: rgb(17,17,17); fill-rule: nonzero; opacity: 1;" vector-effect="non-scaling-stroke"  transform=" translate(-57.97, -14.86)" d="M 10.176 20 L 5.7912 14.0039 L 4.756 14.0039 L 4.756 20 L 1.8263000000000003 20 L 1.8263000000000003 5.888999999999999 L 4.756 5.888999999999999 L 4.756 11.4359 L 5.75209 11.4359 L 10.175889999999999 5.889 L 13.750089999999998 5.889 L 8.281289999999998 12.637 L 13.916089999999999 20.0003 L 10.175889999999999 20.0003 z M 23.876953125 17.2754 C 23.876953125 18.5059 23.994143125 19.287100000000002 24.121093125 19.7266 L 24.121093125 20.000040000000002 L 21.494093125000003 20.000040000000002 L 21.269483125000004 18.90624 C 20.517533125000003 19.81444 19.218683125000005 20.19534 18.046783125000005 20.19534 C 16.464783125000004 20.19534 14.921783125000005 19.49221 14.921783125000005 17.402340000000002 C 14.921783125000005 15.322240000000003 16.474483125000006 14.619140000000002 18.574083125000005 14.160140000000002 L 20.224483125000006 13.789050000000001 C 20.937373125000008 13.623030000000002 21.191283125000005 13.378890000000002 21.191283125000005 12.968740000000002 C 21.191283125000005 11.982410000000002 20.292843125000005 11.708940000000002 19.501783125000006 11.708940000000002 C 18.486183125000007 11.708940000000002 17.714683125000008 12.109330000000002 17.538883125000005 13.242140000000003 L 15.048683125000005 12.792920000000002 C 15.468603125000005 10.712820000000002 16.992083125000004 9.765620000000002 19.658083125000005 9.765620000000002 C 21.669783125000006 9.765620000000002 23.876883125000006 10.361320000000003 23.876883125000006 13.388620000000003 L 23.876883125000006 17.275320000000004 z M 18.925753125 18.291 C 20.263653125 18.291 21.337853125 17.40233 21.337853125 15.4101 L 18.955053125 16.08393 C 18.173803125 16.269479999999998 17.607353125 16.54291 17.607353125 17.21673 C 17.607353125 17.93939 18.203053125 18.29093 18.925753125 18.29093 z M 30.35155 20 C 28.39845 20 27.28515 18.8672 27.28515 16.8652 L 27.28515 12.119100000000001 L 25.312450000000002 12.119100000000001 L 25.312450000000002 9.960900000000002 L 25.94722 9.960900000000002 C 27.01172 9.960900000000002 27.597620000000003 9.550740000000003 27.597620000000003 8.046800000000003 L 27.597620000000003 6.718700000000003 L 30.136720000000004 6.718700000000003 L 30.136720000000004 9.960900000000002 L 32.20702000000001 9.960900000000002 L 32.20702000000001 12.119100000000003 L 30.136720000000008 12.119100000000003 L 30.136720000000008 16.562500000000004 C 30.136720000000008 17.460940000000004 30.57617000000001 17.861300000000004 31.298820000000006 17.861300000000004 L 32.20702000000001 17.861300000000004 L 32.20702000000001 20.000000000000004 L 30.351520000000008 20.000000000000004 z M 43.827687499999996 14.834 L 43.7983905 15.50783 L 36.356990499999995 15.50783 C 36.474180499999996 17.17773 37.587490499999994 17.97853 38.92539049999999 17.97853 C 39.93129049999999 17.97853 40.712490499999994 17.50978 41.09339049999999 16.62113 L 43.67149049999999 17.00199 C 43.00743049999999 19.03329 41.20079049999999 20.19539 38.94489049999999 20.19539 C 35.702690499999996 20.19539 33.58359049999999 18.28129 33.58359049999999 14.98059 C 33.58359049999999 11.67989 35.761290499999994 9.746189999999999 38.856990499999995 9.746189999999999 C 41.698790499999994 9.746189999999999 43.8178905 11.318489999999999 43.827690499999996 14.83409 z M 38.8769875 11.7383 C 37.5976875 11.7383 36.7089875 12.334000000000001 36.4355875 13.6719 L 41.0449875 13.6719 C 40.8985075 12.392600000000002 40.0293875 11.7383 38.8769875 11.7383 z M 45.96681875 20 L 45.96681875 5 L 48.80861875 5 L 48.80861875 20 L 45.96681875 20 z M 58.290971875 9.961 L 61.171871874999994 9.961 L 54.98047187499999 24.727 L 52.128871874999994 24.727 L 54.42377187499999 19.5903 L 50.292871874999996 9.9614 L 53.359271875 9.9614 L 55.751871875 16.563 z M 68.583971875 9.766 C 70.996071875 9.766 72.324171875 11.016 72.324171875 13.2426 L 72.324171875 20.0004 L 69.501871875 20.0004 L 69.501871875 13.848099999999999 C 69.501871875 12.5102 68.67179187500001 12.021899999999999 67.70497187500001 12.021899999999999 C 66.54287187500002 12.021899999999999 65.488171875 12.60784 65.46867187500001 14.463299999999998 L 65.46867187500001 20.0004 L 62.65617187500001 20.0004 L 62.65617187500001 9.9614 L 65.46867187500001 9.9614 L 65.46867187500001 11.0747 C 66.17180187500001 10.24462 67.25577187500001 9.7661 68.58387187500001 9.7661 z M 96.7870625 20 L 93.8671625 20 L 92.93943250000001 9.365 L 89.3652325 20 L 87.47073250000001 20 L 83.8965325 9.365 L 82.9590325 20 L 80.02933250000001 20 L 81.21093250000001 5.888999999999999 L 85.39063250000001 5.888999999999999 L 88.39843250000001 14.7464 L 91.4453325 5.888999999999999 L 95.6250325 5.888999999999999 z M 108.92534375 14.834 L 108.89604675 15.50783 L 101.45464675 15.50783 C 101.57183674999999 17.17773 102.68514675 17.97853 104.02304674999999 17.97853 C 105.02894674999999 17.97853 105.81014674999999 17.50978 106.19104675 16.62113 L 108.76914675 17.00199 C 108.10508675 19.03329 106.29844675000001 20.19539 104.04254675 20.19539 C 100.80034675 20.19539 98.68124675 18.28129 98.68124675 14.98059 C 98.68124675 11.67989 100.85894675 9.746189999999999 103.95464675 9.746189999999999 C 106.79644675 9.746189999999999 108.91554674999999 11.318489999999999 108.92534674999999 14.83409 z M 103.97464375 11.7383 C 102.69534374999999 11.7383 101.80664374999999 12.334000000000001 101.53324375 13.6719 L 106.14264374999999 13.6719 C 105.99616375 12.392600000000002 105.12704374999998 11.7383 103.97464374999998 11.7383 z M 112.499975 8.457 C 111.611305 8.457 110.86907500000001 7.73434 110.86907500000001 6.8359000000000005 C 110.86907500000001 5.94723 111.611265 5.224600000000001 112.499975 5.224600000000001 C 113.36911500000001 5.224600000000001 114.111275 5.947260000000001 114.111275 6.8359000000000005 C 114.111275 7.73434 113.36908500000001 8.457 112.499975 8.457 z M 111.064475 20 L 111.064475 9.961 L 113.896475 9.961 L 113.896475 20 L 111.064475 20 z" stroke-linecap="round" />
</g>
</g>
</g>
</svg>