<svg xmlns="http://www.w3.org/2000/svg" viewBox="1.3664315938949585 14.798912048339844 256.65956938266754 29.22671127319336">
  <path d="M 9.832311630249023 43.18294143676758 C 10.036309242248535 43.18294143676758 10.17844295501709 43.324649810791016 10.17844295501709 43.519859313964844 C 10.17844295501709 43.72428894042969 10.03630542755127 43.86642837524414 9.832311630249023 43.86642837524414 L 1.7125626802444458 43.86642837524414 C 1.5085644721984863 43.86642837524414 1.3664315938949585 43.72429275512695 1.3664315938949585 43.519859313964844 C 1.3664315938949585 43.324642181396484 1.5085690021514893 43.182498931884766 1.7125626802444458 43.182498931884766 L 2.8487353324890137 43.182498931884766 C 3.4861202239990234 43.182498931884766 3.904214859008789 42.70478820800781 3.904214859008789 42.16961669921875 L 3.904214859008789 16.658864974975586 C 3.904214859008789 16.122814178466797 3.4879188537597656 15.642472267150879 2.8487353324890137 15.642472267150879 L 1.7125626802444458 15.642472267150879 C 1.5085644721984863 15.642472267150879 1.3664315938949585 15.500333786010742 1.3664315938949585 15.305113792419434 C 1.3664315938949585 15.100686073303223 1.5085690021514893 14.958544731140137 1.7125626802444458 14.958544731140137 L 9.832311630249023 14.958544731140137 C 10.036309242248535 14.958544731140137 10.17844295501709 15.10068130493164 10.17844295501709 15.305113792419434 C 10.17844295501709 15.500329971313477 10.03630542755127 15.642472267150879 9.832311630249023 15.642472267150879 L 8.696138381958008 15.642472267150879 C 8.058753967285156 15.642472267150879 7.640658855438232 16.122814178466797 7.640658855438232 16.65535545349121 L 7.640658855438232 42.166107177734375 C 7.640658855438232 42.70040512084961 8.056955337524414 43.18294143676758 8.696138381958008 43.18294143676758 L 9.832311630249023 43.18294143676758 Z M 25.958194732666016 43.182498931884766 C 26.16261863708496 43.182498931884766 26.304805755615234 43.32416915893555 26.304805755615234 43.52859115600586 C 26.304805755615234 43.72380447387695 26.162670135498047 43.865943908691406 25.958236694335938 43.865943908691406 L 17.209877014160156 43.865943908691406 C 17.005878448486328 43.865943908691406 16.863746643066406 43.72380447387695 16.863746643066406 43.519378662109375 C 16.863746643066406 43.32415771484375 17.005882263183594 43.1820182800293 17.210315704345703 43.1820182800293 L 18.090744018554688 43.1820182800293 C 18.9935245513916 43.1820182800293 19.144865036010742 42.61920166015625 18.713653564453125 42.0638542175293 L 8.603228569030762 29.678495407104492 L 21.453136444091797 16.662330627441406 C 21.865022659301758 16.261411666870117 21.840919494628906 15.641155242919922 20.93463134765625 15.641155242919922 L 18.769824981689453 15.641155242919922 C 18.565828323364258 15.641155242919922 18.423694610595703 15.499018669128418 18.423694610595703 15.295023918151855 C 18.423694610595703 15.099808692932129 18.56583023071289 14.957667350769043 18.770265579223633 14.957667350769043 L 25.742015838623047 14.957667350769043 C 25.946016311645508 14.957667350769043 26.08814811706543 15.099803924560547 26.08814811706543 15.304237365722656 C 26.08814811706543 15.499452590942383 25.94601058959961 15.641593933105469 25.742015838623047 15.641593933105469 L 25.277467727661133 15.641593933105469 C 23.88425636291504 15.641593933105469 23.242923736572266 15.914007186889648 22.510786056518555 16.662813186645508 L 11.634886741638184 27.718128204345703 L 23.386369705200195 42.17356491088867 C 23.9035587310791 42.84077835083008 24.439172744750977 43.182498931884766 25.360376358032227 43.182498931884766 L 25.958282470703125 43.182498931884766 L 25.958194732666016 43.182498931884766 Z M 54.853267669677734 43.18294143676758 C 55.04848098754883 43.18294143676758 55.19898223876953 43.325077056884766 55.19898223876953 43.529510498046875 C 55.19898223876953 43.72472381591797 55.047630310058594 43.86686325073242 54.852413177490234 43.86686325073242 L 44.97492218017578 43.86686325073242 C 44.77970504760742 43.86686325073242 44.62834930419922 43.7247314453125 44.62834930419922 43.529510498046875 C 44.62834930419922 43.32508087158203 44.779701232910156 43.18294143676758 44.97492218017578 43.18294143676758 L 46.55412673950195 43.18294143676758 C 47.43585205078125 43.18294143676758 47.93018341064453 42.51836013793945 47.60688781738281 41.64759826660156 L 44.88933563232422 34.52143478393555 L 33.69364547729492 34.52143478393555 L 30.93924903869629 41.64759826660156 C 30.63218116760254 42.44071578979492 31.115571975708008 43.18294143676758 31.99205207824707 43.18294143676758 L 33.571258544921875 43.18294143676758 C 33.766475677490234 43.18294143676758 33.91782760620117 43.325077056884766 33.91782760620117 43.529510498046875 C 33.91782760620117 43.72472381591797 33.766475677490234 43.86686325073242 33.571258544921875 43.86686325073242 L 27.077653884887695 43.86686325073242 C 26.882434844970703 43.86686325073242 26.731081008911133 43.7247314453125 26.731081008911133 43.529510498046875 C 26.731081008911133 43.32508087158203 26.88243293762207 43.18294143676758 27.077653884887695 43.18294143676758 L 28.130456924438477 43.18294143676758 C 29.270994186401367 43.18294143676758 29.788185119628906 42.6126708984375 30.148330688476562 41.64759826660156 L 40.591705322265625 14.798912048339844 L 41.42081069946289 14.798912048339844 L 51.73872375488281 41.69146728515625 C 52.05500411987305 42.48107147216797 52.65992736816406 43.18294143676758 53.88819885253906 43.18294143676758 L 54.853267669677734 43.18294143676758 Z M 33.967838287353516 33.846763610839844 L 44.640193939208984 33.846763610839844 L 39.343711853027344 19.958528518676758 L 33.967838287353516 33.846763610839844 Z M 78.65760040283203 14.958588600158691 L 78.65717315673828 22.601503372192383 C 78.65717315673828 22.805932998657227 78.5150375366211 22.948074340820312 78.31060028076172 22.948074340820312 C 78.11538696289062 22.948074340820312 77.9732437133789 22.805936813354492 77.9732437133789 22.601503372192383 L 77.9732437133789 20.825754165649414 C 77.9732437133789 17.7989444732666 76.17469787597656 15.642011642456055 72.57762908935547 15.642011642456055 L 70.36892700195312 15.642011642456055 C 69.7315444946289 15.642011642456055 69.31344604492188 16.122352600097656 69.31344604492188 16.654895782470703 L 69.31344604492188 42.165645599365234 C 69.31344604492188 42.699947357177734 69.72974395751953 43.18247985839844 70.36892700195312 43.18247985839844 L 71.5051040649414 43.18247985839844 C 71.70952606201172 43.18247985839844 71.85167694091797 43.324615478515625 71.85167694091797 43.519840240478516 C 71.85167694091797 43.72426223754883 71.70954132080078 43.86640548706055 71.5051040649414 43.86640548706055 L 63.38535690307617 43.86640548706055 C 63.18135452270508 43.86640548706055 63.039222717285156 43.724266052246094 63.039222717285156 43.519840240478516 C 63.039222717285156 43.32461929321289 63.18136215209961 43.18247985839844 63.38535690307617 43.18247985839844 L 64.52153015136719 43.18247985839844 C 65.1589126586914 43.18247985839844 65.5770034790039 42.704769134521484 65.5770034790039 42.169593811035156 L 65.5770034790039 16.658843994140625 C 65.5770034790039 16.122791290283203 65.16071319580078 15.642449378967285 64.52153015136719 15.642449378967285 L 63.01031494140625 15.642449378967285 C 59.065372467041016 15.642449378967285 56.91896438598633 17.451519012451172 56.91896438598633 21.52191925048828 L 56.91896438598633 22.601919174194336 C 56.91896438598633 22.80634880065918 56.776832580566406 22.948490142822266 56.572837829589844 22.948490142822266 C 56.377620697021484 22.948490142822266 56.23548126220703 22.806352615356445 56.23548126220703 22.601919174194336 L 56.23548126220703 14.958565711975098 L 78.65800476074219 14.958565711975098 L 78.65760040283203 14.958588600158691 Z M 100.60636138916016 35.87691879272461 C 100.80158233642578 35.87691879272461 100.94412994384766 36.02000045776367 100.94412994384766 36.22443389892578 L 100.94412994384766 43.86779022216797 L 81.1996841430664 43.86779022216797 C 80.99568939208984 43.86779022216797 80.85354614257812 43.725650787353516 80.85354614257812 43.52122116088867 C 80.85354614257812 43.32600021362305 80.99568939208984 43.183860778808594 81.1996841430664 43.183860778808594 L 82.33585357666016 43.183860778808594 C 82.97323608398438 43.183860778808594 83.39132690429688 42.70351791381836 83.39132690429688 42.17097473144531 L 83.39132690429688 16.66022491455078 C 83.39132690429688 16.125926971435547 82.97503662109375 15.643391609191895 82.33585357666016 15.643391609191895 L 81.1996841430664 15.643391609191895 C 80.99568939208984 15.643391609191895 80.85354614257812 15.50125503540039 80.85354614257812 15.306035041809082 C 80.85354614257812 15.101606369018555 80.99568939208984 14.959465026855469 81.1996841430664 14.959465026855469 L 100.77174377441406 14.959465026855469 L 100.77174377441406 22.602819442749023 C 100.77174377441406 22.807247161865234 100.62960815429688 22.949390411376953 100.42561340332031 22.949390411376953 C 100.23039245605469 22.949390411376953 100.08824920654297 22.807252883911133 100.08824920654297 22.602819442749023 L 100.08824920654297 20.827068328857422 C 100.08824920654297 17.80025863647461 98.28971099853516 15.643328666687012 94.692626953125 15.643328666687012 L 88.18323516845703 15.643328666687012 C 87.54585266113281 15.643328666687012 87.12774658203125 16.121036529541016 87.12774658203125 16.656211853027344 L 87.12774658203125 28.440156936645508 L 90.61034393310547 28.440156936645508 C 94.18636322021484 28.440156936645508 94.58248138427734 27.195215225219727 94.58248138427734 25.15935707092285 L 94.58248138427734 24.75843620300293 C 94.58248138427734 24.563217163085938 94.73383331298828 24.411865234375 94.9290542602539 24.411865234375 C 95.124267578125 24.411865234375 95.27561950683594 24.563215255737305 95.27561950683594 24.75843620300293 L 95.27561950683594 32.82379150390625 C 95.27561950683594 33.019004821777344 95.124267578125 33.17035675048828 94.9290542602539 33.17035675048828 C 94.73383331298828 33.17035675048828 94.58248138427734 33.028221130371094 94.58248138427734 32.79658889770508 L 94.58248138427734 32.36101531982422 C 94.58248138427734 30.404993057250977 94.20435333251953 29.14206886291504 90.61034393310547 29.14206886291504 L 87.12774658203125 29.14206886291504 L 87.12774658203125 42.167442321777344 C 87.12774658203125 42.703495025634766 87.5440444946289 43.183837890625 88.18323516845703 43.183837890625 L 94.86458587646484 43.183837890625 C 98.46166229248047 43.183837890625 100.26020812988281 41.02690505981445 100.26020812988281 38.00009536743164 L 100.26020812988281 36.22434616088867 C 100.26020812988281 36.01991653442383 100.40235137939453 35.877777099609375 100.6063461303711 35.877777099609375 L 100.60636138916016 35.87691879272461 Z M 124.60589599609375 36.22478485107422 C 124.80111694335938 36.22478485107422 124.94367980957031 36.366539001464844 124.94367980957031 36.57095718383789 L 124.94367980957031 43.866451263427734 L 106.0721664428711 43.866451263427734 C 105.86817169189453 43.866451263427734 105.72603607177734 43.72431182861328 105.72603607177734 43.51987838745117 C 105.72603607177734 43.32466125488281 105.86817169189453 43.18252182006836 106.0721664428711 43.18252182006836 L 107.20833587646484 43.18252182006836 C 107.8457260131836 43.18252182006836 108.2638168334961 42.704811096191406 108.2638168334961 42.169639587402344 L 108.2638168334961 16.65888786315918 C 108.2638168334961 16.122835159301758 107.84751892089844 15.64249324798584 107.20833587646484 15.64249324798584 L 106.0721664428711 15.64249324798584 C 105.86817169189453 15.64249324798584 105.72603607177734 15.500356674194336 105.72603607177734 15.305135726928711 C 105.72603607177734 15.100708961486816 105.86817169189453 14.958565711975098 106.0721664428711 14.958565711975098 L 114.19190979003906 14.958565711975098 C 114.39591979980469 14.958565711975098 114.53804779052734 15.100704193115234 114.53804779052734 15.305135726928711 C 114.53804779052734 15.50035285949707 114.39590454101562 15.64249324798584 114.19190979003906 15.64249324798584 L 113.05574035644531 15.64249324798584 C 112.41836547851562 15.64249324798584 112.0002670288086 16.122835159301758 112.0002670288086 16.655376434326172 L 112.0002670288086 42.1661262512207 C 112.0002670288086 42.70042419433594 112.41656494140625 43.182960510253906 113.05574035644531 43.182960510253906 L 118.8641586303711 43.182960510253906 C 122.43403625488281 43.182960510253906 124.259765625 40.32108688354492 124.259765625 37.36709976196289 L 124.259765625 36.57137680053711 C 124.259765625 36.366947174072266 124.40190124511719 36.22480773925781 124.60589599609375 36.22480773925781 L 124.60589599609375 36.22478485107422 Z M 149.87757873535156 14.958588600158691 C 150.0727996826172 14.958588600158691 150.21400451660156 15.100725173950195 150.21400451660156 15.295947074890137 C 150.21400451660156 15.499944686889648 150.0718536376953 15.64207649230957 149.87664794921875 15.64207649230957 L 148.96595764160156 15.64207649230957 C 148.2882080078125 15.64207649230957 147.70567321777344 16.01275062561035 147.4060516357422 16.66329574584961 L 139.9969482421875 31.076616287231445 L 139.9969482421875 42.13456726074219 C 139.9969482421875 42.68070983886719 140.4022674560547 43.182979583740234 141.05418395996094 43.182979583740234 L 142.19036865234375 43.182979583740234 C 142.3943634033203 43.182979583740234 142.53648376464844 43.32511901855469 142.53648376464844 43.52033996582031 C 142.53648376464844 43.724769592285156 142.39434814453125 43.866912841796875 142.19036865234375 43.866912841796875 L 134.06886291503906 43.866912841796875 C 133.86485290527344 43.866912841796875 133.72271728515625 43.72477340698242 133.72271728515625 43.52033996582031 C 133.72271728515625 43.32512283325195 133.8648681640625 43.182979583740234 134.06927490234375 43.182979583740234 L 135.20545959472656 43.182979583740234 C 135.85731506347656 43.182979583740234 136.2626953125 42.68070983886719 136.2626953125 42.13456726074219 L 136.2626953125 31.886398315429688 L 128.3135986328125 16.662857055664062 C 128.01397705078125 16.116716384887695 127.64505767822266 15.641637802124023 126.7238540649414 15.641637802124023 L 126.02198791503906 15.641637802124023 C 125.81755828857422 15.641637802124023 125.6754150390625 15.49950122833252 125.6754150390625 15.295506477355957 C 125.6754150390625 15.10029125213623 125.81755828857422 14.958148956298828 126.02198791503906 14.958148956298828 L 134.44442749023438 14.958148956298828 C 134.63963317871094 14.958148956298828 134.78176879882812 15.100286483764648 134.78176879882812 15.295506477355957 C 134.78176879882812 15.499505996704102 134.63963317871094 15.641637802124023 134.44442749023438 15.641637802124023 L 133.26612854003906 15.641637802124023 C 132.5146942138672 15.641637802124023 132.34054565429688 16.122417449951172 132.62173461914062 16.662857055664062 L 139.56101989746094 30.34535789489746 L 146.53541564941406 16.662857055664062 C 146.7919921875 16.1697940826416 146.57794189453125 15.64207649230957 145.76116943359375 15.64207649230957 L 144.8263702392578 15.64207649230957 C 144.62237548828125 15.64207649230957 144.48025512695312 15.499939918518066 144.48025512695312 15.295947074890137 C 144.48025512695312 15.100729942321777 144.6223907470703 14.958588600158691 144.82681274414062 14.958588600158691 L 149.8776397705078 14.958588600158691 L 149.87757873535156 14.958588600158691 Z M 176.1274871826172 14.958588600158691 C 176.3319091796875 14.958588600158691 176.47409057617188 15.099957466125488 176.47409057617188 15.29517936706543 C 176.47409057617188 15.499175071716309 176.3319549560547 15.641308784484863 176.1279754638672 15.641308784484863 L 174.99179077148438 15.641308784484863 C 174.33993530273438 15.641308784484863 173.93455505371094 16.143583297729492 173.93455505371094 16.689725875854492 L 173.93455505371094 43.8652229309082 L 172.1978759765625 43.8652229309082 L 155.03541564941406 18.6812801361084 L 155.03541564941406 42.132484436035156 C 155.03541564941406 42.67862319946289 155.4407501220703 43.1808967590332 156.0926513671875 43.1808967590332 L 157.2288360595703 43.1808967590332 C 157.43324279785156 43.1808967590332 157.5753936767578 43.323036193847656 157.5753936767578 43.5274658203125 C 157.5753936767578 43.722686767578125 157.43324279785156 43.86482620239258 157.2288360595703 43.86482620239258 L 152.08587646484375 43.86482620239258 C 151.88186645507812 43.86482620239258 151.73973083496094 43.72269058227539 151.73973083496094 43.5274658203125 C 151.73973083496094 43.32304000854492 151.88186645507812 43.1808967590332 152.08587646484375 43.1808967590332 L 153.22203063964844 43.1808967590332 C 153.8739013671875 43.1808967590332 154.27928161621094 42.67862319946289 154.27928161621094 42.132484436035156 L 154.27928161621094 16.687532424926758 C 154.27928161621094 16.14139175415039 153.87396240234375 15.639116287231445 153.22203063964844 15.639116287231445 L 152.08587646484375 15.639116287231445 C 151.88186645507812 15.639116287231445 151.73973083496094 15.496977806091309 151.73973083496094 15.292984008789062 C 151.73973083496094 15.097769737243652 151.88186645507812 14.955626487731934 152.08587646484375 14.955626487731934 L 156.86866760253906 14.955626487731934 L 173.1779327392578 38.880592346191406 L 173.1779327392578 16.68836784362793 C 173.1779327392578 16.14222526550293 172.77259826660156 15.639948844909668 172.1206817626953 15.639948844909668 L 170.98452758789062 15.639948844909668 C 170.7800750732422 15.639948844909668 170.637939453125 15.497812271118164 170.637939453125 15.293818473815918 C 170.637939453125 15.098601341247559 170.7800750732422 14.956459999084473 170.98452758789062 14.956459999084473 L 176.12744140625 14.956459999084473 L 176.1274871826172 14.958588600158691 Z M 204.73565673828125 44.0256233215332 L 203.9066162109375 44.025238037109375 L 192.67364501953125 17.025211334228516 L 192.67364501953125 42.134578704833984 C 192.67364501953125 42.680721282958984 193.0789794921875 43.18299865722656 193.73089599609375 43.18299865722656 L 194.86705017089844 43.18299865722656 C 195.0714874267578 43.18299865722656 195.213623046875 43.32513427734375 195.213623046875 43.529563903808594 C 195.213623046875 43.72478485107422 195.0714874267578 43.86692428588867 194.86705017089844 43.86692428588867 L 189.72412109375 43.86692428588867 C 189.52012634277344 43.86692428588867 189.37799072265625 43.72478485107422 189.37799072265625 43.529563903808594 C 189.37799072265625 43.325138092041016 189.52012634277344 43.18299865722656 189.72412109375 43.18299865722656 L 190.86029052734375 43.18299865722656 C 191.51214599609375 43.18299865722656 191.91751098632812 42.680721282958984 191.91751098632812 42.134578704833984 L 191.91751098632812 16.68963050842285 C 191.91751098632812 16.14348793029785 191.51217651367188 15.641213417053223 190.86029052734375 15.641213417053223 L 189.72412109375 15.641213417053223 C 189.52012634277344 15.641213417053223 189.37799072265625 15.499074935913086 189.37799072265625 15.295082092285156 C 189.37799072265625 15.09986686706543 189.52012634277344 14.957723617553711 189.72412109375 14.957723617553711 L 195.82598876953125 14.957723617553711 L 205.8539581298828 39.06035232543945 L 215.24539184570312 14.957723617553711 L 221.255126953125 14.957723617553711 C 221.45912170410156 14.957723617553711 221.6012725830078 15.099862098693848 221.6012725830078 15.30429458618164 C 221.6012725830078 15.499510765075684 221.45912170410156 15.641651153564453 221.255126953125 15.641651153564453 L 220.1189727783203 15.641651153564453 C 219.46710205078125 15.641651153564453 219.06173706054688 16.1439266204834 219.06173706054688 16.690067291259766 L 219.06173706054688 42.1350212097168 C 219.06173706054688 42.6811637878418 219.4670867919922 43.18343734741211 220.1189727783203 43.18343734741211 L 221.255126953125 43.18343734741211 C 221.45912170410156 43.18343734741211 221.6012725830078 43.3255729675293 221.6012725830078 43.520790100097656 C 221.6012725830078 43.7252197265625 221.45912170410156 43.86736297607422 221.255126953125 43.86736297607422 L 213.13363647460938 43.86736297607422 C 212.92922973632812 43.86736297607422 212.7870635986328 43.72522735595703 212.7870635986328 43.520790100097656 C 212.7870635986328 43.32558059692383 212.92921447753906 43.18343734741211 213.13363647460938 43.18343734741211 L 214.2698211669922 43.18343734741211 C 214.91729736328125 43.18343734741211 215.32174682617188 42.68861389160156 215.32701110839844 42.1459846496582 L 215.32701110839844 16.788768768310547 L 204.73565673828125 44.0256233215332 Z M 244.09474182128906 35.87691879272461 C 244.28994750976562 35.87691879272461 244.4324951171875 36.02000045776367 244.4324951171875 36.22443389892578 L 244.4324951171875 43.86779022216797 L 224.68804931640625 43.86779022216797 C 224.4840545654297 43.86779022216797 224.3419189453125 43.725650787353516 224.3419189453125 43.52122116088867 C 224.3419189453125 43.32600021362305 224.4840545654297 43.183860778808594 224.68804931640625 43.183860778808594 L 225.82421875 43.183860778808594 C 226.46160888671875 43.183860778808594 226.87969970703125 42.70351791381836 226.87969970703125 42.17097473144531 L 226.87969970703125 16.66022491455078 C 226.87969970703125 16.125926971435547 226.46340942382812 15.643391609191895 225.82421875 15.643391609191895 L 224.68804931640625 15.643391609191895 C 224.4840545654297 15.643391609191895 224.3419189453125 15.50125503540039 224.3419189453125 15.306035041809082 C 224.3419189453125 15.101606369018555 224.4840545654297 14.959465026855469 224.68804931640625 14.959465026855469 L 244.26011657714844 14.959465026855469 L 244.26011657714844 22.602819442749023 C 244.26011657714844 22.807247161865234 244.11798095703125 22.949390411376953 243.9139862060547 22.949390411376953 C 243.71875 22.949390411376953 243.5766143798828 22.807252883911133 243.5766143798828 22.602819442749023 L 243.5766143798828 20.827068328857422 C 243.5766143798828 17.80025863647461 241.778076171875 15.643328666687012 238.18101501464844 15.643328666687012 L 231.67160034179688 15.643328666687012 C 231.0342254638672 15.643328666687012 230.6161346435547 16.121036529541016 230.6161346435547 16.656211853027344 L 230.6161346435547 28.440156936645508 L 234.09872436523438 28.440156936645508 C 237.6747283935547 28.440156936645508 238.0708465576172 27.195215225219727 238.0708465576172 25.15935707092285 L 238.0708465576172 24.75843620300293 C 238.0708465576172 24.563217163085938 238.2222137451172 24.411865234375 238.41741943359375 24.411865234375 C 238.61265563964844 24.411865234375 238.7639923095703 24.563215255737305 238.7639923095703 24.75843620300293 L 238.7639923095703 32.82379150390625 C 238.7639923095703 33.019004821777344 238.61265563964844 33.17035675048828 238.41741943359375 33.17035675048828 C 238.2222137451172 33.17035675048828 238.0708465576172 33.028221130371094 238.0708465576172 32.79658889770508 L 238.0708465576172 32.36101531982422 C 238.0708465576172 30.404993057250977 237.69271850585938 29.14206886291504 234.09872436523438 29.14206886291504 L 230.6161346435547 29.14206886291504 L 230.6161346435547 42.167442321777344 C 230.6161346435547 42.703495025634766 231.0324249267578 43.183837890625 231.67160034179688 43.183837890625 L 238.35296630859375 43.183837890625 C 241.95004272460938 43.183837890625 243.7485809326172 41.02690505981445 243.7485809326172 38.00009536743164 L 243.7485809326172 36.22434616088867 C 243.7485809326172 36.01991653442383 243.89073181152344 35.877777099609375 244.09469604492188 35.877777099609375 L 244.09474182128906 35.87691879272461 Z M 257.67987060546875 43.18294143676758 C 257.88385009765625 43.18294143676758 258.0260009765625 43.324649810791016 258.0260009765625 43.519859313964844 C 258.0260009765625 43.72428894042969 257.88385009765625 43.86642837524414 257.67987060546875 43.86642837524414 L 249.5601043701172 43.86642837524414 C 249.35609436035156 43.86642837524414 249.21397399902344 43.72429275512695 249.21397399902344 43.519859313964844 C 249.21397399902344 43.324642181396484 249.35610961914062 43.182498931884766 249.5601043701172 43.182498931884766 L 250.69627380371094 43.182498931884766 C 251.33364868164062 43.182498931884766 251.7517547607422 42.70478820800781 251.7517547607422 42.16961669921875 L 251.7517547607422 16.658864974975586 C 251.7517547607422 16.122814178466797 251.33546447753906 15.642472267150879 250.69627380371094 15.642472267150879 L 249.5601043701172 15.642472267150879 C 249.35609436035156 15.642472267150879 249.21397399902344 15.500333786010742 249.21397399902344 15.305113792419434 C 249.21397399902344 15.100686073303223 249.35610961914062 14.958544731140137 249.5601043701172 14.958544731140137 L 257.67987060546875 14.958544731140137 C 257.88385009765625 14.958544731140137 258.0260009765625 15.10068130493164 258.0260009765625 15.305113792419434 C 258.0260009765625 15.500329971313477 257.88385009765625 15.642472267150879 257.67987060546875 15.642472267150879 L 256.5436706542969 15.642472267150879 C 255.9062957763672 15.642472267150879 255.48818969726562 16.122814178466797 255.48818969726562 16.65535545349121 L 255.48818969726562 42.166107177734375 C 255.48818969726562 42.70040512084961 255.9044952392578 43.18294143676758 256.5436706542969 43.18294143676758 L 257.67987060546875 43.18294143676758 Z" fill="#00000"/>
</svg>